<?xml version="1.0" standalone="no"?>
<!DOCTYPE svg PUBLIC "-//W3C//DTD SVG 20010904//EN"
 "http://www.w3.org/TR/2001/REC-SVG-20010904/DTD/svg10.dtd">
<svg version="1.0" xmlns="http://www.w3.org/2000/svg"
 width="177.000000pt" height="177.000000pt" viewBox="0 0 177.000000 177.000000"
 preserveAspectRatio="xMidYMid meet">
<metadata>
Created by potrace 1.11, written by Peter Selinger 2001-2013
</metadata>
<g transform="translate(0.000000,177.000000) scale(0.100000,-0.100000)"
fill="#000000" stroke="none">
<path d="M838 1759 c-20 -11 -24 -59 -8 -75 6 -6 7 -35 1 -83 -8 -62 -14 -78
-38 -100 -35 -31 -76 -115 -93 -189 -25 -108 18 -436 98 -749 l18 -72 -42 -7
c-46 -7 -60 -28 -45 -68 5 -11 5 -30 1 -41 -4 -11 -4 -28 1 -37 5 -10 5 -27
-1 -42 -5 -15 -6 -35 -1 -48 7 -17 4 -28 -11 -45 -16 -17 -20 -37 -22 -93 l-1
-72 39 -16 c36 -14 42 -14 70 2 26 15 32 16 41 3 8 -11 24 -13 63 -9 35 3 52
1 52 -7 0 -19 32 -12 37 9 4 15 9 17 23 10 26 -14 62 -12 83 4 25 19 23 107
-5 164 -17 35 -19 49 -10 63 7 10 8 20 3 24 -5 3 -7 20 -4 38 2 17 4 39 4 47
0 8 -1 29 -1 45 -1 56 -8 65 -51 65 -21 0 -39 5 -39 10 0 6 9 50 19 98 98 444
109 752 30 838 -10 11 -19 26 -19 32 0 7 -4 12 -9 12 -26 0 -92 217 -70 231 8
5 9 15 2 35 -8 26 -15 29 -54 31 -24 2 -52 -2 -61 -8z"/>
</g>
</svg>
